<svg id="visual" viewBox="0 0 900 600" width="900" height="600" xmlns="http://www.w3.org/2000/svg" xmlns:xlink="http://www.w3.org/1999/xlink" version="1.1"><rect x="0" y="0" width="900" height="600" fill="#001220"></rect><path d="M0 427L21.5 415.2C43 403.3 86 379.7 128.8 378.7C171.7 377.7 214.3 399.3 257.2 411.7C300 424 343 427 385.8 423C428.7 419 471.3 408 514.2 396.5C557 385 600 373 642.8 370.5C685.7 368 728.3 375 771.2 384.2C814 393.3 857 404.7 878.5 410.3L900 416L900 601L878.5 601C857 601 814 601 771.2 601C728.3 601 685.7 601 642.8 601C600 601 557 601 514.2 601C471.3 601 428.7 601 385.8 601C343 601 300 601 257.2 601C214.3 601 171.7 601 128.8 601C86 601 43 601 21.5 601L0 601Z" fill="#fa7268"></path><path d="M0 409L21.5 419.8C43 430.7 86 452.3 128.8 453.3C171.7 454.3 214.3 434.7 257.2 432.5C300 430.3 343 445.7 385.8 443.3C428.7 441 471.3 421 514.2 423.3C557 425.7 600 450.3 642.8 455.3C685.7 460.3 728.3 445.7 771.2 442C814 438.3 857 445.7 878.5 449.3L900 453L900 601L878.5 601C857 601 814 601 771.2 601C728.3 601 685.7 601 642.8 601C600 601 557 601 514.2 601C471.3 601 428.7 601 385.8 601C343 601 300 601 257.2 601C214.3 601 171.7 601 128.8 601C86 601 43 601 21.5 601L0 601Z" fill="#ef5f67"></path><path d="M0 484L21.5 483.5C43 483 86 482 128.8 475.2C171.7 468.3 214.3 455.7 257.2 457C300 458.3 343 473.7 385.8 480C428.7 486.3 471.3 483.7 514.2 487.2C557 490.7 600 500.3 642.8 500.2C685.7 500 728.3 490 771.2 483.7C814 477.3 857 474.7 878.5 473.3L900 472L900 601L878.5 601C857 601 814 601 771.2 601C728.3 601 685.7 601 642.8 601C600 601 557 601 514.2 601C471.3 601 428.7 601 385.8 601C343 601 300 601 257.2 601C214.3 601 171.7 601 128.8 601C86 601 43 601 21.5 601L0 601Z" fill="#e34c67"></path><path d="M0 496L21.5 493.3C43 490.7 86 485.3 128.8 483.7C171.7 482 214.3 484 257.2 490C300 496 343 506 385.8 514C428.7 522 471.3 528 514.2 532.3C557 536.7 600 539.3 642.8 535.5C685.7 531.7 728.3 521.3 771.2 512.7C814 504 857 497 878.5 493.5L900 490L900 601L878.5 601C857 601 814 601 771.2 601C728.3 601 685.7 601 642.8 601C600 601 557 601 514.2 601C471.3 601 428.7 601 385.8 601C343 601 300 601 257.2 601C214.3 601 171.7 601 128.8 601C86 601 43 601 21.5 601L0 601Z" fill="#d53867"></path><path d="M0 549L21.5 550.7C43 552.3 86 555.7 128.8 552.2C171.7 548.7 214.3 538.3 257.2 535.7C300 533 343 538 385.8 545.5C428.7 553 471.3 563 514.2 566.7C557 570.3 600 567.7 642.8 567.8C685.7 568 728.3 571 771.2 570.7C814 570.3 857 566.7 878.5 564.8L900 563L900 601L878.5 601C857 601 814 601 771.2 601C728.3 601 685.7 601 642.8 601C600 601 557 601 514.2 601C471.3 601 428.7 601 385.8 601C343 601 300 601 257.2 601C214.3 601 171.7 601 128.8 601C86 601 43 601 21.5 601L0 601Z" fill="#c62368"></path></svg>