<?xml version="1.0" standalone="no"?><svg xmlns="http://www.w3.org/2000/svg" viewBox="0 0 1440 320"><path fill="#273036" fillOpacity="1" d="M0,256L26.7,250.7C53.3,245,107,235,160,197.3C213.3,160,267,96,320,101.3C373.3,107,427,181,480,186.7C533.3,192,587,128,640,138.7C693.3,149,747,235,800,266.7C853.3,299,907,277,960,234.7C1013.3,192,1067,128,1120,133.3C1173.3,139,1227,213,1280,208C1333.3,203,1387,117,1413,74.7L1440,32L1440,0L1413.3,0C1386.7,0,1333,0,1280,0C1226.7,0,1173,0,1120,0C1066.7,0,1013,0,960,0C906.7,0,853,0,800,0C746.7,0,693,0,640,0C586.7,0,533,0,480,0C426.7,0,373,0,320,0C266.7,0,213,0,160,0C106.7,0,53,0,27,0L0,0Z"></path></svg>